<svg version="1.1" id="Layer_1" xmlns="http://www.w3.org/2000/svg" xmlns:xlink="http://www.w3.org/1999/xlink" x="0px" y="0px"
	 viewBox="0 0 30 28" style="enable-background:new 0 0 30 28;" xml:space="preserve">
<path class="st0" d="M26.8,27.5H3.2c-1,0-1.9-0.5-2.4-1.4c-0.5-0.9-0.5-1.9,0-2.8L12.5,1.9C13,1,14,0.5,15,0.5c0,0,0,0,0,0
	c1,0,2,0.5,2.5,1.5l11.8,21.4c0.5,0.9,0.5,1.9,0,2.8C28.8,27,27.9,27.5,26.8,27.5z M15,1.6c-0.6,0-1.2,0.3-1.5,0.9L1.7,23.9
	c-0.3,0.5-0.3,1.1,0,1.7s0.8,0.8,1.4,0.8h23.7c0.6,0,1.1-0.3,1.4-0.8c0.3-0.5,0.3-1.1,0-1.7L16.5,2.5C16.2,2,15.6,1.6,15,1.6z
	 M15,22.2c-0.9,0-1.5-0.5-1.5-1.4c0-0.9,0.6-1.4,1.5-1.4c0.9,0,1.5,0.5,1.5,1.4C16.5,21.7,15.9,22.2,15,22.2z M16.4,10.2L16.1,18
	h-2.3l-0.2-7.8H16.4z"/>
</svg>
